<svg width="972" height="1712" xmlns="http://www.w3.org/2000/svg" xmlns:xlink="http://www.w3.org/1999/xlink" xml:space="preserve" overflow="hidden"><defs><clipPath id="clip0"><rect x="1841" y="219" width="972" height="1712"/></clipPath></defs><g clip-path="url(#clip0)" transform="translate(-1841 -219)"><rect x="2112" y="270" width="589" height="155" stroke="#000000" stroke-width="2.29167" stroke-miterlimit="8" stroke-dasharray="9.16667 6.875" fill="#DEEBF7"/><text font-family="Times New Roman,Times New Roman_MSFontService,sans-serif" font-weight="400" font-size="28" transform="matrix(1 0 0 1 2340.92 341)">Initial Form </text><text font-family="Times New Roman,Times New Roman_MSFontService,sans-serif" font-weight="400" font-size="28" transform="matrix(1 0 0 1 2214.87 374)">(SFT multi</text><text font-family="Times New Roman,Times New Roman_MSFontService,sans-serif" font-weight="400" font-size="28" transform="matrix(1 0 0 1 2335.76 374)">-</text><text font-family="Times New Roman,Times New Roman_MSFontService,sans-serif" font-weight="400" font-size="28" transform="matrix(1 0 0 1 2344.93 374)">channel Complex data)</text><path d="M2414.25 1797.5 2414.25 1811 2423.5 1811 2405 1824.5 2386.5 1811 2395.75 1811 2395.75 1797.5Z" stroke="#2F528F" stroke-width="1.14583" stroke-miterlimit="8" fill="#4472C4" fill-rule="evenodd"/><rect x="2113" y="501" width="233" height="155" stroke="#000000" stroke-width="2.29167" stroke-miterlimit="8" fill="none"/><text font-family="Times New Roman,Times New Roman_MSFontService,sans-serif" font-weight="700" font-size="28" transform="matrix(1 0 0 1 2192.43 573)">Power </text><text font-family="Times New Roman,Times New Roman_MSFontService,sans-serif" font-weight="700" font-size="28" transform="matrix(1 0 0 1 2165.5 606)">Transform</text><path d="M2239.25 683.5 2239.25 697 2248.5 697 2230 710.5 2211.5 697 2220.75 697 2220.75 683.5Z" stroke="#2F528F" stroke-width="1.14583" stroke-miterlimit="8" fill="#4472C4" fill-rule="evenodd"/><rect x="2114" y="976" width="233" height="155" stroke="#000000" stroke-width="2.29167" stroke-miterlimit="8" fill="none"/><text font-family="Times New Roman,Times New Roman_MSFontService,sans-serif" font-weight="700" font-size="28" transform="matrix(1 0 0 1 2200.39 1031)">Time </text><text font-family="Times New Roman,Times New Roman_MSFontService,sans-serif" font-weight="700" font-size="28" transform="matrix(1 0 0 1 2180.91 1064)">Window </text><text font-family="Times New Roman,Times New Roman_MSFontService,sans-serif" font-weight="700" font-size="28" transform="matrix(1 0 0 1 2197.23 1097)">Mean</text><path d="M2240.25 1158.5 2240.25 1172 2249.5 1172 2231 1185.5 2212.5 1172 2221.75 1172 2221.75 1158.5Z" stroke="#2F528F" stroke-width="1.14583" stroke-miterlimit="8" fill="#4472C4" fill-rule="evenodd"/><rect x="2113" y="738" width="233" height="155" stroke="#000000" stroke-width="2.29167" stroke-miterlimit="8" stroke-dasharray="9.16667 6.875" fill="#DEEBF7"/><text font-family="Times New Roman,Times New Roman_MSFontService,sans-serif" font-weight="400" font-size="28" transform="matrix(1 0 0 1 2194.43 793)">Power </text><text font-family="Times New Roman,Times New Roman_MSFontService,sans-serif" font-weight="400" font-size="28" transform="matrix(1 0 0 1 2177.25 826)">Spectrum </text><text font-family="Times New Roman,Times New Roman_MSFontService,sans-serif" font-weight="400" font-size="28" transform="matrix(1 0 0 1 2199.89 859)">Form</text><rect x="2113" y="1205" width="232" height="155" stroke="#000000" stroke-width="2.29167" stroke-miterlimit="8" stroke-dasharray="9.16667 6.875" fill="#DEEBF7"/><text font-family="Times New Roman,Times New Roman_MSFontService,sans-serif" font-weight="400" font-size="28" transform="matrix(1 0 0 1 2200.9 1260)">Final </text><text font-family="Times New Roman,Times New Roman_MSFontService,sans-serif" font-weight="400" font-size="28" transform="matrix(1 0 0 1 2161.07 1293)">Compressed </text><text font-family="Times New Roman,Times New Roman_MSFontService,sans-serif" font-weight="400" font-size="28" transform="matrix(1 0 0 1 2199.18 1326)">Form</text><path d="M2112 1444.83C2112 1435.54 2119.54 1428 2128.83 1428L2328.17 1428C2337.46 1428 2345 1435.54 2345 1444.83L2345 1512.17C2345 1521.46 2337.46 1529 2328.17 1529L2128.83 1529C2119.54 1529 2112 1521.46 2112 1512.17Z" stroke="#000000" stroke-width="2.29167" stroke-miterlimit="8" fill="#F2F2F2" fill-rule="evenodd"/><text font-family="Times New Roman,Times New Roman_MSFontService,sans-serif" font-weight="700" font-size="37" transform="matrix(1 0 0 1 2189.09 1492)">CNN</text><rect x="2468" y="1023" width="233" height="155" stroke="#000000" stroke-width="2.29167" stroke-miterlimit="8" fill="none"/><text font-family="Times New Roman,Times New Roman_MSFontService,sans-serif" font-weight="700" font-size="28" transform="matrix(1 0 0 1 2526.54 1078)">Statistical </text><text font-family="Times New Roman,Times New Roman_MSFontService,sans-serif" font-weight="700" font-size="28" transform="matrix(1 0 0 1 2538.85 1111)">Feature </text><text font-family="Times New Roman,Times New Roman_MSFontService,sans-serif" font-weight="700" font-size="28" transform="matrix(1 0 0 1 2521.96 1144)">Extraction</text><path d="M2594 1208.5 2594 1222 2603.5 1222 2584.5 1235.5 2565.5 1222 2575 1222 2575 1208.5Z" stroke="#2F528F" stroke-width="1.14583" stroke-miterlimit="8" fill="#4472C4" fill-rule="evenodd"/><path d="M2464 1443.83C2464 1434.54 2471.54 1427 2480.83 1427L2680.17 1427C2689.46 1427 2697 1434.54 2697 1443.83L2697 1511.17C2697 1520.46 2689.46 1528 2680.17 1528L2480.83 1528C2471.54 1528 2464 1520.46 2464 1511.17Z" stroke="#000000" stroke-width="2.29167" stroke-miterlimit="8" fill="#FFF2CC" fill-rule="evenodd"/><text font-family="Times New Roman,Times New Roman_MSFontService,sans-serif" font-weight="700" font-size="37" transform="matrix(1 0 0 1 2551.04 1491)">ML</text><path d="M2594 1539.5 2594 1553 2603.5 1553 2584.5 1566.5 2565.5 1553 2575 1553 2575 1539.5Z" stroke="#2F528F" stroke-width="1.14583" stroke-miterlimit="8" fill="#4472C4" fill-rule="evenodd"/><rect x="2112" y="1683" width="585" height="93.9999" stroke="#000000" stroke-width="2.29167" stroke-miterlimit="8" fill="none"/><text font-family="Times New Roman,Times New Roman_MSFontService,sans-serif" font-weight="700" font-size="28" transform="matrix(1 0 0 1 2274.82 1741)">Ensemble Component</text><rect x="2464" y="1582" width="233" height="43" stroke="#000000" stroke-width="2.29167" stroke-miterlimit="8" stroke-dasharray="9.16667 6.875" fill="#FFF2CC"/><text font-family="Times New Roman,Times New Roman_MSFontService,sans-serif" font-weight="400" font-size="28" transform="matrix(1 0 0 1 2530.99 1614)">probs</text><text font-family="Times New Roman,Times New Roman_MSFontService,sans-serif" font-weight="400" font-size="28" transform="matrix(1 0 0 1 2592.3 1614)">-</text><text font-family="Times New Roman,Times New Roman_MSFontService,sans-serif" font-weight="400" font-size="28" transform="matrix(1 0 0 1 2601.46 1614)">ml </text><rect x="2112" y="1582" width="233" height="43" stroke="#000000" stroke-width="2.29167" stroke-miterlimit="8" stroke-dasharray="9.16667 6.875" fill="#F2F2F2"/><text font-family="Times New Roman,Times New Roman_MSFontService,sans-serif" font-weight="400" font-size="28" transform="matrix(1 0 0 1 2173.62 1614)">probs</text><text font-family="Times New Roman,Times New Roman_MSFontService,sans-serif" font-weight="400" font-size="28" transform="matrix(1 0 0 1 2234.92 1614)">-</text><text font-family="Times New Roman,Times New Roman_MSFontService,sans-serif" font-weight="400" font-size="28" transform="matrix(1 0 0 1 2244.09 1614)">cnn </text><rect x="2291" y="1876" width="233" height="43.0004" stroke="#000000" stroke-width="2.29167" stroke-miterlimit="8" stroke-dasharray="9.16667 6.875" fill="#DEEBF7"/><text font-family="Times New Roman,Times New Roman_MSFontService,sans-serif" font-weight="400" font-size="28" transform="matrix(1 0 0 1 2345.22 1908)">Final</text><text font-family="Times New Roman,Times New Roman_MSFontService,sans-serif" font-weight="400" font-size="28" transform="matrix(1 0 0 1 2401.37 1908)">-</text><text font-family="Times New Roman,Times New Roman_MSFontService,sans-serif" font-weight="400" font-size="28" transform="matrix(1 0 0 1 2410.53 1908)">preds </text><text font-family="Palatino Linotype,Palatino Linotype_MSFontService,sans-serif" font-weight="700" font-size="28" transform="matrix(1 0 0 1 2369.41 261)">INPUT</text><text font-family="Palatino Linotype,Palatino Linotype_MSFontService,sans-serif" font-weight="700" font-size="28" transform="matrix(1 0 0 1 2344.63 1862)">OUTPUT</text><text font-family="Calibri,Calibri_MSFontService,sans-serif" font-style="italic" font-weight="700" font-size="21" transform="matrix(1 0 0 1 2488.17 1005)">Step 4</text><text font-family="Calibri,Calibri_MSFontService,sans-serif" font-style="italic" font-weight="700" font-size="21" transform="matrix(1 0 0 1 2261.96 489)">Step 1</text><path d="M2242.25 922.5 2242.25 936 2251.5 936 2233 949.501 2214.5 936 2223.75 936 2223.75 922.5Z" stroke="#2F528F" stroke-width="1.14583" stroke-miterlimit="8" fill="#4472C4" fill-rule="evenodd"/><text font-family="Calibri,Calibri_MSFontService,sans-serif" font-style="italic" font-weight="700" font-size="21" transform="matrix(1 0 0 1 2268.14 963)">Step 2</text><text font-family="Calibri,Calibri_MSFontService,sans-serif" font-style="italic" font-weight="700" font-size="21" transform="matrix(1 0 0 1 2268.14 1410)">Step 3</text><text font-family="Calibri,Calibri_MSFontService,sans-serif" font-style="italic" font-weight="700" font-size="21" transform="matrix(1 0 0 1 2391.38 1672)">Step 6</text><path d="M2242.25 1381.5 2242.25 1395 2251.5 1395 2233 1408.5 2214.5 1395 2223.75 1395 2223.75 1381.5Z" stroke="#2F528F" stroke-width="1.14583" stroke-miterlimit="8" fill="#4472C4" fill-rule="evenodd"/><rect x="2470" y="1266" width="233" height="43" stroke="#000000" stroke-width="2.29167" stroke-miterlimit="8" stroke-dasharray="9.16667 6.875" fill="#DEEBF7"/><text font-family="Times New Roman,Times New Roman_MSFontService,sans-serif" font-weight="400" font-size="28" transform="matrix(1 0 0 1 2507.85 1298)">Feature vector </text><path d="M2594.25 1351.5 2594.25 1365 2603.5 1365 2585 1378.5 2566.5 1365 2575.75 1365 2575.75 1351.5Z" stroke="#2F528F" stroke-width="1.14583" stroke-miterlimit="8" fill="#4472C4" fill-rule="evenodd"/><text font-family="Calibri,Calibri_MSFontService,sans-serif" font-style="italic" font-weight="700" font-size="21" transform="matrix(1 0 0 1 2628.97 1413)">Step 5</text><path d="M1893 474.854 1911.33 474.854 1911.33 477.146 1893 477.146ZM1918.21 474.854 1936.54 474.854 1936.54 477.146 1918.21 477.146ZM1943.42 474.854 1961.75 474.854 1961.75 477.146 1943.42 477.146ZM1968.62 474.854 1986.96 474.854 1986.96 477.146 1968.62 477.146ZM1993.83 474.854 2012.17 474.854 2012.17 477.146 1993.83 477.146ZM2019.04 474.854 2037.38 474.854 2037.38 477.146 2019.04 477.146ZM2044.25 474.854 2062.58 474.854 2062.58 477.146 2044.25 477.146ZM2069.46 474.854 2087.79 474.855 2087.79 477.146 2069.46 477.146ZM2094.67 474.855 2113 474.855 2113 477.146 2094.67 477.146ZM2119.88 474.855 2138.21 474.855 2138.21 477.146 2119.88 477.146ZM2145.08 474.855 2155.22 474.855 2155.22 477.146 2145.08 477.146ZM1893 485.167 1883.83 476 1893 466.833 1902.17 476ZM2155.22 476 2146.05 466.834 2164.39 476 2146.05 485.167Z"/><path d="M1893 1556.85 1911.33 1556.85 1911.33 1559.15 1893 1559.15ZM1918.21 1556.85 1936.54 1556.85 1936.54 1559.15 1918.21 1559.15ZM1943.42 1556.85 1961.75 1556.85 1961.75 1559.15 1943.42 1559.15ZM1968.62 1556.85 1986.96 1556.85 1986.96 1559.15 1968.62 1559.15ZM1993.83 1556.85 2012.17 1556.85 2012.17 1559.15 1993.83 1559.15ZM2019.04 1556.85 2037.38 1556.85 2037.38 1559.15 2019.04 1559.15ZM2044.25 1556.85 2062.58 1556.85 2062.58 1559.15 2044.25 1559.15ZM2069.46 1556.85 2087.79 1556.85 2087.79 1559.15 2069.46 1559.15ZM2094.67 1556.85 2113 1556.85 2113 1559.15 2094.67 1559.15ZM2119.88 1556.85 2138.21 1556.85 2138.21 1559.15 2119.88 1559.15ZM2145.08 1556.85 2155.22 1556.85 2155.22 1559.15 2145.08 1559.15ZM1893 1567.17 1883.83 1558 1893 1548.83 1902.17 1558ZM2155.22 1558 2146.05 1548.83 2164.39 1558 2146.05 1567.17Z"/><text font-family="Times New Roman,Times New Roman_MSFontService,sans-serif" font-weight="400" font-size="32" transform="matrix(6.12323e-17 -1 1 6.12323e-17 1903.67 1188)">PWM</text><text font-family="Times New Roman,Times New Roman_MSFontService,sans-serif" font-weight="400" font-size="32" transform="matrix(6.12323e-17 -1 1 6.12323e-17 1903.67 1111)">-</text><text font-family="Times New Roman,Times New Roman_MSFontService,sans-serif" font-weight="400" font-size="32" transform="matrix(6.12323e-17 -1 1 6.12323e-17 1903.67 1100)">CNN component</text><path d="M0 0 0.000360892 385.23" stroke="#000000" stroke-width="2.29167" stroke-miterlimit="8" stroke-dasharray="18.3333 6.875" fill="none" fill-rule="evenodd" transform="matrix(1 0 0 -1 1893 860.23)"/><text font-family="Times New Roman,Times New Roman_MSFontService,sans-serif" font-weight="400" font-size="32" transform="matrix(6.12323e-17 -1 1 6.12323e-17 2770.04 1380)">S</text><text font-family="Times New Roman,Times New Roman_MSFontService,sans-serif" font-weight="400" font-size="32" transform="matrix(6.12323e-17 -1 1 6.12323e-17 2770.04 1362)">-</text><text font-family="Times New Roman,Times New Roman_MSFontService,sans-serif" font-weight="400" font-size="32" transform="matrix(6.12323e-17 -1 1 6.12323e-17 2770.04 1351)">ML component</text><path d="M0 0 1.02169 113.274" stroke="#000000" stroke-width="2.29167" stroke-miterlimit="8" stroke-dasharray="18.3333 6.875" fill="none" fill-rule="evenodd" transform="matrix(1 0 0 -1 2760 1130.27)"/><path d="M2664.17 1003.85 2682.5 1003.85 2682.5 1006.15 2664.17 1006.15ZM2689.38 1003.85 2707.71 1003.85 2707.71 1006.15 2689.38 1006.15ZM2714.58 1003.85 2732.92 1003.85 2732.92 1006.15 2714.58 1006.15ZM2739.79 1003.85 2758.13 1003.85 2758.13 1006.15 2739.79 1006.15ZM2664.17 1005 2673.33 1014.17 2655 1005 2673.33 995.833ZM2759.4 995.834 2768.57 1005 2759.4 1014.17 2750.24 1005Z"/><path d="M0 0 0.000360892 145.525" stroke="#000000" stroke-width="2.29167" stroke-miterlimit="8" stroke-dasharray="18.3333 6.875" fill="none" fill-rule="evenodd" transform="matrix(1 0 0 -1 2760 1541.53)"/><path d="M2664.17 1557.85 2682.5 1557.85 2682.5 1560.15 2664.17 1560.15ZM2689.38 1557.85 2707.71 1557.85 2707.71 1560.15 2689.38 1560.15ZM2714.58 1557.85 2732.92 1557.85 2732.92 1560.15 2714.58 1560.15ZM2739.79 1557.85 2758.13 1557.85 2758.13 1560.15 2739.79 1560.15ZM2664.17 1559 2673.33 1568.17 2655 1559 2673.33 1549.83ZM2759.4 1549.83 2768.57 1559 2759.4 1568.17 2750.24 1559Z"/><path d="M2242.25 1542.5 2242.25 1555.5 2251.5 1555.5 2233 1568.5 2214.5 1555.5 2223.75 1555.5 2223.75 1542.5Z" stroke="#2F528F" stroke-width="1.14583" stroke-miterlimit="8" fill="#4472C4" fill-rule="evenodd"/><path d="M2242.25 1640.5 2242.25 1654 2251.5 1654 2233 1667.5 2214.5 1654 2223.75 1654 2223.75 1640.5Z" stroke="#2F528F" stroke-width="1.14583" stroke-miterlimit="8" fill="#4472C4" fill-rule="evenodd"/><path d="M2590.25 1640.5 2590.25 1654 2599.5 1654 2581 1667.5 2562.5 1654 2571.75 1654 2571.75 1640.5Z" stroke="#2F528F" stroke-width="1.14583" stroke-miterlimit="8" fill="#4472C4" fill-rule="evenodd"/><path d="M2594.25 451.5 2594.25 982 2603.5 982 2585 1000.5 2566.5 982 2575.75 982 2575.75 451.5Z" stroke="#2F528F" stroke-width="1.14583" stroke-miterlimit="8" fill="#4472C4" fill-rule="evenodd"/><path d="M2230.25 451.5 2230.25 465 2239.5 465 2221 478.5 2202.5 465 2211.75 465 2211.75 451.5Z" stroke="#2F528F" stroke-width="1.14583" stroke-miterlimit="8" fill="#4472C4" fill-rule="evenodd"/><rect x="1911" y="1428" width="161" height="102" stroke="#000000" stroke-width="2.29167" stroke-miterlimit="8" fill="none"/><path d="M0-2.29167 18.3333-2.29167 18.3333 2.29167 0 2.29167ZM32.0833-2.29167 50.4167-2.29167 50.4167 2.29167 32.0833 2.29167ZM64.1667-2.29167 82.5-2.29167 82.5 2.29167 64.1667 2.29167ZM96.25-2.29167 114.583-2.29167 114.583 2.29167 96.25 2.29167ZM123.828 6.79741 123.828 25.1307 119.244 25.1307 119.244 6.79741ZM123.828 38.8807 123.828 57.2141 119.244 57.2141 119.244 38.8807ZM123.828 70.9641 123.828 89.2974 119.244 89.2974 119.244 70.9641ZM123.828 103.047 123.828 121.381 119.244 121.381 119.244 103.047ZM130.703 127.319 121.536 145.652 112.369 127.319Z" fill="#4472C4" transform="matrix(-1 1.22465e-16 1.22465e-16 1 2113.04 1282.5)"/><path d="M0.00884725-1.71873 13.7587-1.64795 13.741 1.78951-0.00884725 1.71873ZM24.071-1.59487 26.9926-1.57983 26.9749 1.85763 24.0533 1.84259ZM22.4477-9.05124 40.7336 0.209678 22.3533 9.28185Z" fill="#4472C4" transform="matrix(1 0 0 -1 2072.5 1479.71)"/><path d="M1893 1204 1893 1547.14" stroke="#000000" stroke-width="2.29167" stroke-miterlimit="8" stroke-dasharray="18.3333 6.875" fill="none" fill-rule="evenodd"/><text fill="#0D0D0D" font-family="Times New Roman,Times New Roman_MSFontService,sans-serif" font-weight="400" font-size="23" transform="matrix(1 0 0 1 1990.6 1273)">I</text><text fill="#0D0D0D" font-family="Times New Roman,Times New Roman_MSFontService,sans-serif" font-weight="400" font-size="23" transform="matrix(1 0 0 1 1998.05 1273)">f Train</text><text font-family="Times New Roman,Times New Roman_MSFontService,sans-serif" font-weight="700" font-size="28" transform="matrix(1 0 0 1 1926.43 1484)">SpecAugm</text></g></svg>